# xmcd
#
# Track frame offsets: 
#        182
#        24440
#        57182
#        79732
#        96417
#        115200
#        145472
#        163085
#
# Disc length: 2539 seconds
#
# Revision: 4
# Processed by: cddbd v1.5.2PL0 Copyright (c) Steve Scherf et al.
# Submitted via: ExactAudioCopy v0.99pb4
#
DISCID=6809e908
DTITLE=Roberta Flack - Quiet Fire
DYEAR=1971
DGENRE=Soul
TTITLE0=Go Up Moses
TTITLE1=Bridge Over Troubled Water
TTITLE2=Sunday and Sister Jones
TTITLE3=See You Then
TTITLE4=Will You Still Love Me Tomorrow
TTITLE5=To Love Somebody
TTITLE6=Let Them Talk
TTITLE7=Sweet Bitter Love
EXTD=YEAR: 1971
EXTT0=
EXTT1=
EXTT2=
EXTT3=
EXTT4=
EXTT5=
EXTT6=
EXTT7=
PLAYORDER=
